<svg width="51" height="51" viewBox="0 0 51 51" fill="none" xmlns="http://www.w3.org/2000/svg">
<g clip-path="url(#clip0_18_1381)">
<path d="M0 25.5C0 11.4168 11.4167 0 25.5 0C39.5833 0 51 11.4167 51 25.5V26.3644C51 40.4477 39.5833 51.8644 25.5 51.8644C11.4167 51.8644 0 40.4477 0 26.3644V25.5Z" fill="#6265A6"/>
<ellipse cx="25.5001" cy="20.7098" rx="11.2642" ry="11.7415" fill="white"/>
<path fill-rule="evenodd" clip-rule="evenodd" d="M44.1693 46.561C44.2086 46.6575 44.1824 46.768 44.1045 46.837C41.4524 49.1864 38.168 50.8403 34.5278 51.5224C32.7021 51.8645 30.5107 51.8645 26.1279 51.8645H24.8722C20.4894 51.8645 18.298 51.8645 16.4723 51.5224C12.8323 50.8404 9.54798 49.1865 6.8959 46.8373C6.81794 46.7682 6.79181 46.6577 6.83102 46.5612C9.47214 40.0626 16.8329 35.3867 25.5002 35.3867C34.1674 35.3867 41.5282 40.0625 44.1693 46.561Z" fill="white"/>
</g>
<defs>
<clipPath id="clip0_18_1381">
<rect width="51" height="51" rx="25.5" fill="white"/>
</clipPath>
</defs>
</svg>
